PathFileType	4	(X/Y/Z)	C:/Users/beibeiliu/ov580/test_trc/User2\sequence.2_training_dense_right.trc
DataRate	CameraRate	NumFrames	NumMarkers	Units	OrigDataRate	OrigDataStartFrame	OrigNumFrames
120	120	24	19	mm	120	39	307
Frame#	Time	ThumbCMC			ThumbMCP			ThumbIP			ThumbTip			IndexMCP			IndexPIP			IndexTip			MiddleMCP			MiddlePIP			MiddleTip			RingMCP			RingPIP			RingTip			PinkyMCP			PinkyPIP			PinkyTip			BackHand1			BackHand2			BackHand3	
		X0	Y0	Z0	X1	Y1	Z1	X2	Y2	Z2	X3	Y3	Z3	X4	Y4	Z4	X5	Y5	Z5	X6	Y6	Z6	X7	Y7	Z7	X8	Y8	Z8	X9	Y9	Z9	X10	Y10	Z10	X11	Y11	Z11	X12	Y12	Z12	X13	Y13	Z13	X14	Y14	Z14	X15	Y15	Z15	X16	Y16	Z16	X17	Y17	Z17	X18	Y18	Z18	
38	0.316667	103.529	42.2616	73.1648	63.024	41.6382	71.7062	27.8256	25.1128	67.5631	13.2951	3.69351	71.5595	61.2741	-12.0154	18.5311	30.1693	-13.7852	24.1758	18.1875	1.44731	53.5786	60.1803	-32.8604	29.3239	26.0982	-27.067	41.2839	26.0654	-0.603635	73.8597	55.0675	-42.6256	47.8843	29.2591	-37.5796	61.904	26.3649	-8.58517	84.4732	65.9917	-51.5825	71.0257	37.5734	-41.5121	83.1192	35.1539	-12.9139	95.7314	119.965	-26.5064	66.0209	143.027	-13.9677	81.2447	128.756	7.0288	54.0576	
39	0.325	107.268	47.4996	67.5302	66.1797	47.4408	64.3016	33.4453	36.5879	63.4267	15.0297	20.0017	68.96	63.0725	-4.09366	18.9744	28.3077	-4.16657	20.5558	15.502	16.2309	48.2307	51.2502	-23.9793	28.1345	18.7735	-13.4028	44.9806	27.0531	13.0583	74.0203	45.4232	-36.3379	52.8003	20.6702	-21.2016	63.0452	24.0532	8.37224	84.3161	54.7116	-40.3576	72.0381	26.8614	-24.366	84.34	32.0577	4.71886	97.8025	111.898	-29.3962	70.2432	138.628	-17.6872	88.4949	127.019	5.0419	53.5812	
40	0.333333	110.958	45.5692	61.6836	74.488	55.2322	59.4426	38.6181	51.6586	56.6191	18.4134	32.6985	61.5795	60.8806	-1.79376	16.7922	27.454	2.43654	21.273	18.4177	28.9827	47.4686	47.7795	-20.3612	31.8021	17.772	-2.8364	39.9099	27.0561	26.507	68.7609	42.8512	-28.3923	54.8585	16.2686	-8.94869	60.6563	20.6876	19.2247	81.0223	45.1416	-33.4835	76.9352	20.4473	-10.4077	84.4031	28.8582	17.2861	96.2004	104.615	-26.4342	70.9191	132.968	-20.2411	88.886	124.099	0.863486	57.7766	
41	0.341667	115.839	42.5001	59.7673	82.723	60.6194	52.4899	45.5792	56.9892	47.6148	20.0702	42.9001	52.4262	60.8513	0.691058	12.7997	28.0168	10.64	15.5725	21.7235	37.4416	35.5069	43.0657	-13.4133	26.5559	15.8548	6.84318	37.8907	30.8053	35.5579	64.075	34.8962	-19.7674	50.8782	14.2985	0.986539	53.4586	24.1885	32.6819	75.4242	40.6449	-24.6175	75.7945	18.5585	4.9752	76.3163	28.1363	28.2685	89.4515	100.466	-27.1064	73.9699	123.277	-20.4798	90.7268	124.358	-0.0941788	56.0603	
42	0.35	118.745	38.761	55.4411	89.6277	59.5904	45.6521	51.8386	63.2674	36.3332	24.4965	50.9379	40.6258	58.514	-0.705907	11.1306	32.1018	12.2632	9.61155	27.0842	41.5045	27.9936	41.6541	-11.6827	24.6418	17.2857	11.0199	29.2949	31.9056	42.7603	53.2254	36.2674	-12.6839	44.546	13.7576	10.7378	47.3266	24.3138	40.0923	60.5812	35.6618	-17.3562	71.8557	15.3011	9.73992	70.317	29.8832	38.9619	80.0586	95.7897	-25.5775	73.9311	118.085	-21.7741	92.2735	120.496	-4.24303	54.1304	
43	0.358333	123.538	38.1254	50.244	94.7284	56.6859	38.5624	61.1205	64.0163	27.8786	34.6782	56.242	31.2436	65.4415	-2.90699	9.06259	34.6495	16.9718	0.00513645	32.8222	44.4277	16.4984	48.2133	-9.9914	21.1652	22.3038	17.7377	17.8685	35.1238	46.5549	40.4235	36.7502	-11.9024	40.3803	15.9599	16.9986	38.442	25.9005	44.1798	54.6196	32.2417	-12.3759	65.4771	17.7709	16.9426	59.415	31.9975	43.3774	69.8177	93.0466	-23.796	73.4432	115.491	-21.5241	92.3087	121.105	-7.66576	59.0823	
44	0.366667	123.507	32.4526	48.6399	101.831	53.6207	32.1933	69.0888	61.6032	18.8772	40.3489	55.2992	19.9914	67.6159	-6.46435	0.333457	43.2624	11.0029	-8.37152	39.2226	42.2652	11.2067	50.2944	-11.0124	13.5144	25.9492	16.2984	12.4162	41.7699	46.7116	32.2939	35.9042	-10.3344	33.3872	19.3945	17.3424	28.5753	30.5395	45.0737	43.4497	37.1135	-8.90899	56.9244	19.5619	19.7436	51.1982	36.6431	43.8553	56.4546	89.5617	-26.3023	69.9304	115.012	-18.8001	95.742	124.074	-8.97881	57.4093	
45	0.375	128.859	29.9792	46.5258	106.033	49.6037	23.8095	75.4335	57.5357	6.09108	45.0768	50.1763	6.66073	77.6861	-12.2687	0.743667	52.5499	6.07149	-15.5122	50.0494	39.8201	0.536233	58.4162	-16.2932	7.77747	35.1402	9.5699	-0.482411	47.211	42.4226	23.0924	46.1186	-15.0406	28.0413	25.4294	12.0802	18.752	35.5674	42.8797	30.7858	36.7483	-12.4596	50.9489	24.6808	12.6678	39.4645	34.7552	43.8432	48.7602	94.2056	-24.2516	68.5649	114.727	-21.0267	97.3881	127.214	-11.5343	53.393	
46	0.383333	135.659	28.5444	42.8435	113.18	44.0539	20.3367	80.7955	50.1681	-1.8754	56.4836	44.8897	-0.667353	87.9919	-16.7125	-5.91231	60.775	-2.23495	-19.1046	58.1304	33.3203	-4.62333	66.187	-22.7392	5.19637	43.2833	3.96931	-7.61333	53.0794	36.1287	13.48	53.1627	-21.1632	22.1508	32.8548	4.41922	9.09136	41.4885	36.8505	20.0452	40.8261	-17.9383	44.5608	26.9452	11.3722	30.9641	40.7903	36.4777	34.7994	91.7162	-27.8435	67.9107	113.46	-22.6092	93.5619	129.039	-15.3323	57.141	
47	0.391667	140.523	23.353	46.5568	120.193	39.6106	14.8987	92.4617	43.913	-7.50796	64.1909	34.321	-8.04388	98.9065	-24.2222	-6.95451	69.3949	-11.4972	-22.6009	67.5767	22.7314	-17.1369	72.2714	-31.4702	2.77428	51.3119	-3.87883	-13.4552	61.8156	30.6658	3.21164	60.0785	-28.6373	19.3821	38.4463	-3.86444	3.62009	46.9144	27.4614	10.3854	50.1301	-23.2107	39.4085	37.9351	-0.403534	20.0962	45.0053	28.9167	23.0386	98.9593	-31.3549	70.0793	120.246	-21.5003	95.2441	136.786	-16.8743	60.2943	
48	0.4	147.341	21.0086	43.4514	128.474	35.0356	13.1925	99.7009	35.0175	-12.2877	74.9999	29.6246	-16.8111	104.076	-34.0059	-9.36476	85.4271	-22.8014	-29.4029	74.2386	10.2757	-22.2156	82.7053	-40.1694	0.870539	63.2279	-17.8252	-19.6336	67.6982	20.1798	-6.00296	70.3234	-36.5234	13.6444	50.4125	-18.0299	-2.99924	54.7402	21.5606	5.58334	59.1176	-30.0208	37.5987	41.0345	-10.2129	15.7602	51.0792	19.2099	15.3006	105.358	-32.6105	70.4094	121.357	-25.0447	94.6161	142.57	-20.5116	60.1963	
49	0.408333	151.425	16.365	43.7437	132.737	26.208	10.1019	111.321	29.9052	-14.274	83.9176	19.0603	-21.7392	117.887	-38.7958	-6.05265	93.8371	-28.1132	-29.7848	84.7429	5.15478	-26.4179	100.674	-46.7174	0.608723	71.7852	-27.1555	-21.7131	74.118	8.46628	-12.6819	77.8514	-44.5591	12.8158	63.6514	-27.5834	-8.95227	63.2322	11.3282	-2.86636	72.0578	-37.0771	34.1241	52.0911	-20.8905	10.5846	57.3216	8.28667	7.421	112.087	-37.288	67.757	127.911	-24.389	92.5	149.755	-23.6073	62.1978	
50	0.416667	159.81	15.987	40.6378	142.261	26.1743	9.50966	121.541	24.5213	-16.0266	95.259	11.3581	-28.2213	132.982	-45.1118	-8.78722	110.583	-37.2449	-33.0638	97.0738	-5.98885	-32.9549	111.925	-54.253	-4.35494	91.1346	-38.8189	-26.8008	81.5725	-0.400706	-16.374	91.4744	-52.4877	11.3512	75.7484	-37.9944	-11.5394	71.8283	0.770604	-7.9485	82.5382	-44.486	30.1245	69.2267	-31.5706	2.96776	63.8579	-0.791658	3.66269	122.8	-40.8468	63.4212	135.194	-28.353	92.1158	156.579	-23.5618	64.1438	
51	0.425	168.505	17.6452	43.5778	148.972	19.1831	9.85292	130.105	17.7299	-16.0026	107.69	4.59448	-30.4857	146.972	-48.0057	-4.53063	126.721	-44.8722	-30.3376	112.106	-12.27	-37.6617	128.09	-58.0479	-0.220551	106.575	-47.2336	-28.9055	97.659	-5.84413	-25.3275	105.636	-58.6777	11.2835	91.8008	-43.1185	-17.6361	84.1909	-8.03581	-13.6459	95.0718	-51.5765	26.2778	78.6978	-41.9868	1.98349	76.9475	-7.05533	-4.5213	132.138	-44.0004	63.62	139.261	-29.9431	94.896	167.753	-25.3197	64.0664	
52	0.433333	175.482	15.4593	42.9018	157.651	19.9839	8.70563	138.881	12.4992	-18.4188	120.281	2.06601	-34.7032	158.929	-50.5819	-8.27937	142.193	-45.8243	-36.0035	121.614	-15.039	-37.2155	140.963	-63.3701	-3.71494	123.614	-51.426	-32.2487	107.191	-13.9145	-27.5242	122.451	-63.0378	5.15143	106.503	-51.3174	-19.0799	97.3582	-15.0615	-18.2483	109.253	-56.2566	24.8685	95.7071	-48.1626	-4.35755	89.7033	-17.9799	-11.3774	140.866	-46.6581	64.877	150.524	-27.7314	93.97	173.705	-25.2156	64.5068	
53	0.441667	180.476	16.9264	43.3864	165.105	21.5657	7.72585	148.435	14.9726	-19.9265	129.002	-3.45245	-38.6065	175.416	-48.2243	-7.25791	157.664	-49.2157	-33.8806	136.012	-22.2377	-39.9221	160.026	-61.9797	-5.93163	135.658	-52.7957	-36.8528	118.494	-19.523	-32.707	136.084	-67.4986	1.68553	120.927	-57.1529	-22.663	113.486	-19.1059	-23.4779	121.224	-61.8062	22.2448	107.155	-56.3121	-7.09472	103.06	-26.9212	-18.0581	152.849	-47.4905	64.3428	158.389	-31.3382	91.2967	186.336	-24.2344	62.8534	
54	0.45	181.914	18.7638	44.0912	167.268	22.5049	10.7832	153.46	13.8055	-22.8823	137.912	0.415007	-38.273	187.769	-44.9936	-13.3478	170.41	-42.0443	-41.3235	148.215	-19.7247	-44.9171	175.245	-59.894	-11.584	152.346	-50.8873	-41.4912	133.855	-20.7637	-39.2895	155.436	-65.1807	-4.46989	136.468	-58.7034	-27.4137	123.689	-25.517	-27.4899	138.29	-65.651	13.1487	124.73	-56.8872	-14.9862	111.295	-26.6605	-21.6823	166.606	-47.1402	56.2257	166.223	-32.7869	88.6738	195.326	-21.8419	58.7814	
55	0.458333	183.178	21.9911	43.4678	168.964	23.0922	8.43195	156.068	19.1108	-21.8352	143.163	-2.23026	-39.4791	202.665	-31.9704	-16.7386	183.894	-33.6914	-42.6976	158.119	-15.1804	-47.2485	191.411	-51.7761	-14.89	170.166	-46.3261	-44.6722	141.108	-17.6238	-39.3511	171.563	-62.6135	-5.74004	155.859	-50.5713	-34.6638	131.59	-25.5765	-29.0147	156.721	-64.1578	10.371	140.33	-58.8573	-20.5467	127.603	-31.0662	-25.8847	180.164	-47.1588	53.1263	176.515	-31.9071	85.3645	204.027	-12.6526	56.6453	
56	0.466667	183.196	27.6514	43.3505	166.399	29.5693	8.42214	156.618	21.3464	-22.6908	147.766	2.99961	-41.7542	211.591	-17.5153	-20.0464	197.37	-17.192	-46.3233	163.269	-3.93641	-49.3297	207.015	-37.1505	-19.3664	185.1	-36.6076	-47.9294	151.673	-14.8165	-42.6905	191.762	-50.0095	-12.2476	169.943	-47.8706	-38.9632	143.458	-26.4768	-31.6245	177.344	-58.2819	2.99584	159.647	-56.8267	-26.0325	136.089	-34.47	-26.6957	193.092	-41.0337	50.4917	190.045	-30.3405	81.0603	208.894	-5.87888	55.2863	
57	0.475	178.057	33.5876	45.0841	162.2	34.0514	7.63981	152.111	27.2271	-26.3979	148.343	9.04694	-40.6725	218.028	6.32583	-22.0046	200.223	0.662883	-50.1428	164.47	4.96606	-47.6724	216.672	-18.8197	-24.5602	192.399	-17.4106	-54.4268	156.954	-10.1171	-43.804	206.176	-37.8605	-18.092	186.256	-35.1191	-44.3783	154.535	-17.6973	-34.4928	195.903	-51.9357	-6.27349	179.362	-44.2571	-32.1005	147.672	-28.8303	-30.5161	208.708	-28.1741	44.6832	202.411	-26.0959	73.7107	212.931	5.34267	53.5966	
58	0.483333	171.724	35.0273	45.0391	151.952	36.0052	13.3222	143.079	33.0074	-20.3885	147.038	12.182	-42.5104	214.114	26.7726	-21.8063	195.908	24.4711	-51.6611	163.315	17.7541	-46.9946	220.369	5.06008	-25.791	194.396	-1.45128	-56.4368	156.771	1.12641	-43.1779	216.103	-13.205	-23.9433	192.815	-19.5156	-48.0616	161.542	-13.363	-37.0996	210.073	-35.4958	-11.4621	190.278	-32.3216	-38.4783	158.329	-26.3947	-35.1459	215.782	-18.0525	40.8756	209.675	-17.8798	74.3261	211.441	18.2931	55.0286	
59	0.491667	163.568	33.9644	49.3917	142.278	36.6726	16.4604	139.536	29.1683	-17.8864	141.938	17.1241	-40.1857	203.572	49.0899	-19.187	188.564	40.2572	-47.0296	157.741	22.3123	-41.7938	214.937	27.3091	-29.2723	190.828	18.8558	-56.0895	157.64	6.29661	-43.5842	218.227	5.14218	-27.2919	195.688	-1.03549	-51.1918	164.254	-8.20603	-37.4767	217.481	-17.1563	-14.0403	197.537	-17.4404	-41.9435	167.288	-17.2797	-35.0591	220.676	-0.991185	33.8992	215.48	-8.01067	70.8766	207.576	27.7553	56.957	
60	0.5	152.497	33.201	55.1884	138.009	30.4137	21.4122	128.633	30.1471	-13.0114	135.341	21.1397	-40.6597	190.732	61.1625	-17.2067	170.833	52.2669	-43.6579	145.211	29.352	-35.6294	203.642	47.2195	-22.6411	181.114	38.253	-51.9597	151.433	8.69703	-37.6173	212.604	24.7501	-29.8159	191.976	16.0483	-49.8183	162.683	-0.992783	-36.1464	217.619	0.913804	-16.8092	192.673	2.83019	-41.5556	168.123	-12.1163	-37.4496	221.134	12.3152	34.8033	218.03	2.47222	67.9283	200.683	37.8988	56.0952	
61	0.508333	147.247	30.4679	54.9074	125.741	26.7341	25.3249	118.676	27.4681	-10.9845	131.218	20.9774	-34.6283	173.334	70.4963	-7.45703	159.846	57.9596	-38.8769	138.334	33.9963	-32.0675	192.333	56.282	-19.4667	167.994	47.1649	-49.4845	145.795	17.218	-38.1173	200.836	41.6119	-24.5821	184.414	32.4608	-48.2682	159.558	6.66039	-38.6285	210.002	20.7439	-18.294	192.024	13.9304	-42.161	161.333	-4.40377	-35.6115	215.019	24.1406	33.7135	215.82	12.0692	66.2313	188.456	44.4557	60.4526	
